<svg width="80" height="370" viewBox="0 0 80 370" fill="none" xmlns="http://www.w3.org/2000/svg">
<rect x="0.5" y="0.5" width="79.0075" height="369" rx="4.5" stroke="#9747FF" stroke-dasharray="10 5"/>
<rect x="44.0045" y="37.998" width="18" height="8" fill="#DFE2E1"/>
<rect x="48.0043" y="47.9961" width="12" height="2" fill="#DFE2E1"/>
<rect x="22" y="46" width="6" height="2" fill="#DFE2E1"/>
<rect x="20" y="44" width="4" height="2" fill="#DFE2E1"/>
<rect x="25.9999" y="48" width="2" height="2" fill="#DFE2E1"/>
<rect x="20" y="56" width="17" height="2" fill="#DFE2E1"/>
<rect x="22" y="54" width="4" height="2" fill="#DFE2E1"/>
<rect x="53.9999" y="50" width="2" height="2" fill="#C1C3C2"/>
<rect x="45.9999" y="46" width="16" height="2" fill="#DFE2E1"/>
<rect x="27.9988" y="47.998" width="18" height="4" fill="#DFE2E1"/>
<rect x="25.9999" y="52" width="28" height="4" fill="#DFE2E1"/>
<rect x="23.9988" y="58" width="11" height="2" fill="#DFE2E1"/>
<rect x="54" y="54" width="4" height="2" fill="#DFE2E1"/>
<rect x="54" y="56" width="4" height="2" fill="#DFE2E1"/>
<rect x="24" y="60" width="7" height="2" fill="#DFE2E1"/>
<rect x="58.0018" y="31.999" width="1.99948" height="1.99948" fill="#694234"/>
<rect x="46.0045" y="33.999" width="3.99896" height="1.99948" fill="#694234"/>
<rect x="50.0045" y="33.9961" width="6" height="2" fill="#DFE2E1"/>
<rect x="46.0011" y="35.998" width="14" height="2" fill="#DFE2E1"/>
<rect x="56.0023" y="33.999" width="3.99896" height="1.99948" fill="#694234"/>
<rect x="56.0023" y="43.9961" width="3.99896" height="1.99948" fill="#694234"/>
<rect x="56" y="58" width="2" height="2" fill="#694234"/>
<rect x="24" y="60" width="3.99896" height="1.99948" fill="#694234"/>
<rect x="22" y="58" width="2" height="2" fill="#694234"/>
<rect x="18" y="40" width="2" height="4" fill="#694234"/>
<rect x="50.0038" y="43.9961" width="3.99896" height="1.99948" fill="#4E3638"/>
<rect x="52.0033" y="45.9951" width="3.99896" height="1.99948" fill="#4E3638"/>
<rect x="57.9998" y="58" width="2" height="2" fill="#4E3638"/>
<rect x="60" y="56" width="2" height="4" fill="#4E3638"/>
<rect x="24" y="62" width="3.99896" height="1.99948" fill="#4E3638"/>
<rect x="20" y="58" width="2" height="2" fill="#4E3638"/>
<rect x="52.0033" y="41.9971" width="5.99844" height="1.99948" fill="#694234"/>
<rect x="56.0023" y="45.9951" width="1.99948" height="1.99948" fill="#694234"/>
<rect x="58.0018" y="39.9971" width="1.99948" height="3.99896" fill="#281711"/>
<rect x="54.0028" y="43.9961" width="1.99948" height="1.99948" fill="#AE799E"/>
<rect x="50.0038" y="39.9971" width="1.99948" height="3.99896" fill="#281711"/>
<rect x="48.004" y="31.999" width="1.99948" height="1.99948" fill="#694234"/>
<rect x="56.0023" y="31.999" width="1.99948" height="1.99948" fill="#4E3638"/>
<rect x="46.0045" y="31.999" width="1.99948" height="1.99948" fill="#4E3638"/>
<rect x="58.0018" y="30" width="1.99948" height="1.99948" fill="#4E3638"/>
<rect x="48.004" y="30" width="1.99948" height="1.99948" fill="#4E3638"/>
<rect x="45.9999" y="50" width="8" height="4" fill="#C1C3C2"/>
<rect x="37" y="56" width="9" height="2" fill="#C1C3C2"/>
<rect x="50" y="54" width="4" height="2" fill="#C1C3C2"/>
<rect x="41.9999" y="54" width="10" height="2" fill="#C1C3C2"/>
<rect x="52" y="56" width="4" height="2" fill="#C1C3C2"/>
<rect x="54" y="52" width="2" height="2" fill="#DFE2E1"/>
<rect x="58" y="56" width="2" height="2" fill="#DFE2E1"/>
<rect x="33" y="58" width="2" height="2" fill="#C1C3C2"/>
<rect x="43.9999" y="46" width="2" height="4" fill="#C1C3C2"/>
<rect x="45.9999" y="48" width="2" height="2" fill="#C1C3C2"/>
<rect x="52" y="56" width="2" height="2" fill="#4E3638"/>
<rect x="37" y="46" width="5" height="2" fill="#DFE2E1"/>
<rect x="60.0001" y="30" width="1" height="8" fill="#171515" fill-opacity="0.5"/>
<rect x="55.0001" y="31.001" width="1" height="3" fill="#171515" fill-opacity="0.5"/>
<rect x="56.0001" y="31.001" width="1" height="1" fill="#171515" fill-opacity="0.5"/>
<rect x="57" y="29.001" width="1" height="3" fill="#171515" fill-opacity="0.5"/>
<rect x="47" y="29.001" width="1" height="3" fill="#171515" fill-opacity="0.5"/>
<rect x="45" y="31" width="2" height="1" fill="#171515" fill-opacity="0.5"/>
<rect x="43" y="37" width="2" height="1" fill="#171515" fill-opacity="0.5"/>
<rect x="37" y="45" width="5" height="1" fill="#171515" fill-opacity="0.5"/>
<rect x="29" y="47" width="7" height="1" fill="#171515" fill-opacity="0.5"/>
<rect x="25" y="45" width="3" height="1" fill="#171515" fill-opacity="0.5"/>
<rect x="21" y="43" width="3" height="1" fill="#171515" fill-opacity="0.5"/>
<rect x="48" y="29" width="3" height="1" fill="#171515" fill-opacity="0.5"/>
<rect x="51" y="33" width="4" height="1" fill="#171515" fill-opacity="0.5"/>
<rect x="58" y="29" width="3" height="1" fill="#171515" fill-opacity="0.5"/>
<rect x="49.9999" y="30" width="1" height="4" fill="#171515" fill-opacity="0.5"/>
<rect x="45" y="32" width="1" height="6" fill="#171515" fill-opacity="0.5"/>
<rect x="43" y="38" width="1" height="10" fill="#171515" fill-opacity="0.5"/>
<rect x="62" y="37" width="1" height="12" fill="#171515" fill-opacity="0.5"/>
<rect x="59.9998" y="48.001" width="1" height="3" fill="#171515" fill-opacity="0.5"/>
<rect x="58.0001" y="54" width="1" height="2" fill="#171515" fill-opacity="0.5"/>
<rect x="51" y="56.001" width="1" height="2" fill="#171515" fill-opacity="0.5"/>
<rect x="46" y="56" width="1" height="2" fill="#171515" fill-opacity="0.5"/>
<rect x="35" y="59.001" width="1" height="2" fill="#171515" fill-opacity="0.5"/>
<rect x="25" y="49" width="1" height="4" fill="#171515" fill-opacity="0.5"/>
<rect x="30.9996" y="61.001" width="1" height="2" fill="#171515" fill-opacity="0.5"/>
<rect x="19" y="56" width="1" height="5" fill="#171515" fill-opacity="0.5"/>
<rect x="19.0001" y="44" width="1" height="2" fill="#171515" fill-opacity="0.5"/>
<rect x="17.0001" y="39" width="1" height="5" fill="#171515" fill-opacity="0.5"/>
<rect x="20" y="39" width="1" height="5" fill="#171515" fill-opacity="0.5"/>
<rect x="24" y="43" width="1" height="3" fill="#171515" fill-opacity="0.5"/>
<rect x="28" y="45" width="1" height="3" fill="#171515" fill-opacity="0.5"/>
<rect x="36" y="45" width="1" height="3" fill="#171515" fill-opacity="0.5"/>
<rect x="42" y="45" width="1" height="3" fill="#171515" fill-opacity="0.5"/>
<rect x="21" y="54" width="1" height="2" fill="#171515" fill-opacity="0.5"/>
<rect x="21" y="46" width="1" height="2" fill="#171515" fill-opacity="0.5"/>
<rect x="22.9999" y="61.001" width="1" height="3" fill="#171515" fill-opacity="0.5"/>
<rect x="28" y="63.001" width="1" height="1" fill="#171515" fill-opacity="0.5"/>
<rect x="55" y="58" width="1" height="2" fill="#171515" fill-opacity="0.5"/>
<rect x="62" y="56" width="1" height="5" fill="#171515" fill-opacity="0.5"/>
<rect x="55.9999" y="50" width="1" height="4" fill="#171515" fill-opacity="0.5"/>
<rect x="61" y="37" width="1" height="1" fill="#171515" fill-opacity="0.5"/>
<rect x="60.9999" y="48" width="1" height="1" fill="#171515" fill-opacity="0.5"/>
<rect x="57" y="50.001" width="3" height="1" fill="#171515" fill-opacity="0.5"/>
<rect x="57.0001" y="53" width="2" height="1" fill="#171515" fill-opacity="0.5"/>
<rect x="47.0001" y="56" width="4" height="1" fill="#171515" fill-opacity="0.5"/>
<rect x="51" y="58.001" width="4" height="1" fill="#171515" fill-opacity="0.5"/>
<rect x="34.9999" y="58" width="12" height="1" fill="#171515" fill-opacity="0.5"/>
<rect x="31" y="60" width="4" height="1" fill="#171515" fill-opacity="0.5"/>
<rect x="19" y="55" width="2" height="1" fill="#171515" fill-opacity="0.5"/>
<rect x="19" y="46" width="2" height="1" fill="#171515" fill-opacity="0.5"/>
<rect x="17.0001" y="44" width="2" height="1" fill="#171515" fill-opacity="0.5"/>
<rect x="18.0001" y="39" width="2" height="1" fill="#171515" fill-opacity="0.5"/>
<rect x="21" y="53" width="5" height="1" fill="#171515" fill-opacity="0.5"/>
<rect x="21" y="48" width="5" height="1" fill="#171515" fill-opacity="0.5"/>
<rect x="26" y="50" width="2" height="2" fill="#171515" fill-opacity="0.5"/>
<rect x="28" y="62.001" width="3" height="1" fill="#171515" fill-opacity="0.5"/>
<rect x="19.9999" y="60.001" width="4" height="1" fill="#171515" fill-opacity="0.5"/>
<rect x="59" y="55" width="4" height="1" fill="#171515" fill-opacity="0.5"/>
<rect x="55" y="60" width="7" height="1" fill="#171515" fill-opacity="0.5"/>
<rect x="44.0045" y="327.99" width="18" height="8" fill="#DFE2E1"/>
<rect x="48.0043" y="337.988" width="12" height="2" fill="#DFE2E1"/>
<rect x="22" y="335.992" width="6" height="2" fill="#DFE2E1"/>
<rect x="20" y="333.992" width="4" height="2" fill="#DFE2E1"/>
<rect x="25.9999" y="337.992" width="2" height="2" fill="#DFE2E1"/>
<rect x="26" y="345.992" width="7" height="2" fill="#DFE2E1"/>
<rect x="26" y="343.992" width="6" height="2" fill="#DFE2E1"/>
<rect x="51.9999" y="339.992" width="4" height="2" fill="#C1C3C2"/>
<rect x="45.9999" y="335.992" width="16" height="2" fill="#DFE2E1"/>
<rect x="27.9988" y="337.99" width="18" height="4" fill="#DFE2E1"/>
<rect x="28" y="341.992" width="26" height="6" fill="#DFE2E1"/>
<rect x="26" y="347.992" width="9" height="2" fill="#DFE2E1"/>
<rect x="26" y="350" width="4" height="2" fill="#DFE2E1"/>
<rect x="58.0018" y="321.991" width="1.99948" height="1.99948" fill="#694234"/>
<rect x="46.0045" y="323.991" width="3.99896" height="1.99948" fill="#694234"/>
<rect x="50.0045" y="323.988" width="6" height="2" fill="#DFE2E1"/>
<rect x="46.0011" y="325.99" width="14" height="2" fill="#DFE2E1"/>
<rect x="56.0023" y="323.991" width="3.99896" height="1.99948" fill="#694234"/>
<rect x="56.0023" y="333.988" width="3.99896" height="1.99948" fill="#694234"/>
<rect x="54" y="349.992" width="2" height="2" fill="#694234"/>
<rect x="52" y="347.992" width="2" height="2" fill="#694234"/>
<rect x="24" y="345.992" width="2" height="4" fill="#694234"/>
<rect x="18" y="329.992" width="2" height="4" fill="#694234"/>
<rect x="50.0038" y="333.988" width="3.99896" height="1.99948" fill="#4E3638"/>
<rect x="52.0033" y="335.987" width="3.99896" height="1.99948" fill="#4E3638"/>
<rect x="55.9996" y="349.992" width="2" height="2" fill="#4E3638"/>
<rect x="24" y="352" width="3.99896" height="1.99948" fill="#4E3638"/>
<rect x="22" y="347.992" width="2" height="2" fill="#4E3638"/>
<rect x="24" y="350" width="2" height="2" fill="#4E3638"/>
<rect x="52.0033" y="331.989" width="5.99844" height="1.99948" fill="#694234"/>
<rect x="56.0023" y="335.987" width="1.99948" height="1.99948" fill="#694234"/>
<rect x="58.0018" y="329.989" width="1.99948" height="3.99896" fill="#281711"/>
<rect x="54.0028" y="333.988" width="1.99948" height="1.99948" fill="#AE799E"/>
<rect x="50.0038" y="329.989" width="1.99948" height="3.99896" fill="#281711"/>
<rect x="48.004" y="321.991" width="1.99948" height="1.99948" fill="#694234"/>
<rect x="56.0023" y="321.991" width="1.99948" height="1.99948" fill="#4E3638"/>
<rect x="46.0045" y="321.991" width="1.99948" height="1.99948" fill="#4E3638"/>
<rect x="58.0018" y="319.992" width="1.99948" height="1.99948" fill="#4E3638"/>
<rect x="48.004" y="319.992" width="1.99948" height="1.99948" fill="#4E3638"/>
<rect x="45.9999" y="339.992" width="8" height="4" fill="#C1C3C2"/>
<rect x="37" y="345.992" width="14" height="2" fill="#C1C3C2"/>
<rect x="49.9999" y="345.992" width="2" height="2" fill="#C1C3C2"/>
<rect x="40" y="343.992" width="12" height="2" fill="#C1C3C2"/>
<rect x="53.9999" y="347.992" width="4" height="2" fill="#DFE2E1"/>
<rect x="53.9999" y="345.992" width="2" height="2" fill="#DFE2E1"/>
<rect x="30" y="347.992" width="7" height="2" fill="#C1C3C2"/>
<rect x="43.9999" y="335.992" width="2" height="4" fill="#C1C3C2"/>
<rect x="45.9999" y="337.992" width="2" height="2" fill="#C1C3C2"/>
<rect x="60.0001" y="320" width="1" height="8" fill="#171515" fill-opacity="0.5"/>
<rect x="55.0001" y="321.001" width="1" height="3" fill="#171515" fill-opacity="0.5"/>
<rect x="56.0001" y="321.001" width="1" height="1" fill="#171515" fill-opacity="0.5"/>
<rect x="57" y="319.001" width="1" height="3" fill="#171515" fill-opacity="0.5"/>
<rect x="47" y="319.001" width="1" height="3" fill="#171515" fill-opacity="0.5"/>
<rect x="45" y="321" width="2" height="1" fill="#171515" fill-opacity="0.5"/>
<rect x="43" y="327" width="2" height="1" fill="#171515" fill-opacity="0.5"/>
<rect x="29" y="337" width="14" height="1" fill="#171515" fill-opacity="0.5"/>
<rect x="25" y="335" width="3" height="1" fill="#171515" fill-opacity="0.5"/>
<rect x="21" y="333" width="3" height="1" fill="#171515" fill-opacity="0.5"/>
<rect x="48" y="319" width="3" height="1" fill="#171515" fill-opacity="0.5"/>
<rect x="51" y="323" width="4" height="1" fill="#171515" fill-opacity="0.5"/>
<rect x="58" y="319" width="3" height="1" fill="#171515" fill-opacity="0.5"/>
<rect x="49.9999" y="320" width="1" height="4" fill="#171515" fill-opacity="0.5"/>
<rect x="45" y="322" width="1" height="6" fill="#171515" fill-opacity="0.5"/>
<rect x="43" y="328" width="1" height="10" fill="#171515" fill-opacity="0.5"/>
<rect x="62" y="327" width="1" height="12" fill="#171515" fill-opacity="0.5"/>
<rect x="59.9998" y="338.001" width="1" height="3" fill="#171515" fill-opacity="0.5"/>
<rect x="54" y="343" width="1" height="3" fill="#171515" fill-opacity="0.5"/>
<rect x="37" y="349.001" width="1" height="2" fill="#171515" fill-opacity="0.5"/>
<rect x="25" y="339" width="1" height="2" fill="#171515" fill-opacity="0.5"/>
<rect x="27" y="340" width="1" height="4" fill="#171515" fill-opacity="0.5"/>
<rect x="30" y="351.001" width="1" height="2" fill="#171515" fill-opacity="0.5"/>
<rect x="19.0001" y="334" width="1" height="2" fill="#171515" fill-opacity="0.5"/>
<rect x="17.0001" y="329" width="1" height="5" fill="#171515" fill-opacity="0.5"/>
<rect x="20" y="329" width="1" height="5" fill="#171515" fill-opacity="0.5"/>
<rect x="24" y="333" width="1" height="3" fill="#171515" fill-opacity="0.5"/>
<rect x="28" y="335" width="1" height="3" fill="#171515" fill-opacity="0.5"/>
<rect x="21" y="336" width="1" height="2" fill="#171515" fill-opacity="0.5"/>
<rect x="22.9999" y="351.001" width="1" height="3" fill="#171515" fill-opacity="0.5"/>
<rect x="28" y="353.001" width="1" height="1" fill="#171515" fill-opacity="0.5"/>
<rect x="58" y="348" width="1" height="5" fill="#171515" fill-opacity="0.5"/>
<rect x="56" y="346" width="1" height="2" fill="#171515" fill-opacity="0.5"/>
<rect x="51" y="349" width="1" height="2" fill="#171515" fill-opacity="0.5"/>
<rect x="53" y="351" width="1" height="2" fill="#171515" fill-opacity="0.5"/>
<rect x="55.9999" y="340" width="1" height="3" fill="#171515" fill-opacity="0.5"/>
<rect x="61" y="327" width="1" height="1" fill="#171515" fill-opacity="0.5"/>
<rect x="60.9999" y="338" width="1" height="1" fill="#171515" fill-opacity="0.5"/>
<rect x="57" y="340.001" width="3" height="1" fill="#171515" fill-opacity="0.5"/>
<rect x="54" y="342" width="2" height="1" fill="#171515" fill-opacity="0.5"/>
<rect x="57" y="347" width="2" height="1" fill="#171515" fill-opacity="0.5"/>
<rect x="52" y="350" width="2" height="1" fill="#171515" fill-opacity="0.5"/>
<rect x="37" y="348" width="15" height="1" fill="#171515" fill-opacity="0.5"/>
<rect x="30" y="350" width="7" height="1" fill="#171515" fill-opacity="0.5"/>
<rect x="19" y="336" width="2" height="1" fill="#171515" fill-opacity="0.5"/>
<rect x="17.0001" y="334" width="2" height="1" fill="#171515" fill-opacity="0.5"/>
<rect x="18.0001" y="329" width="2" height="1" fill="#171515" fill-opacity="0.5"/>
<rect x="25" y="343" width="1" height="3" fill="#171515" fill-opacity="0.5"/>
<rect x="23" y="345" width="1" height="3" fill="#171515" fill-opacity="0.5"/>
<rect x="21" y="347" width="1" height="4" fill="#171515" fill-opacity="0.5"/>
<rect x="26" y="340" width="1" height="1" fill="#171515" fill-opacity="0.5"/>
<rect x="26" y="343" width="1" height="1" fill="#171515" fill-opacity="0.5"/>
<rect x="24" y="345" width="1" height="1" fill="#171515" fill-opacity="0.5"/>
<rect x="22" y="347" width="1" height="1" fill="#171515" fill-opacity="0.5"/>
<rect x="21" y="338" width="5" height="1" fill="#171515" fill-opacity="0.5"/>
<rect x="28" y="352" width="2" height="1" fill="#171515" fill-opacity="0.5"/>
<rect x="22" y="350" width="2" height="1" fill="#171515" fill-opacity="0.5"/>
<rect x="55" y="345" width="2" height="1" fill="#171515" fill-opacity="0.5"/>
<rect x="54" y="352" width="4" height="1" fill="#171515" fill-opacity="0.5"/>
<rect x="44.0045" y="97.9902" width="18" height="8" fill="#DFE2E1"/>
<rect x="46" y="105.992" width="14" height="2" fill="#DFE2E1"/>
<rect x="24.0011" y="103.989" width="4" height="2" fill="#DFE2E1"/>
<rect x="22.0009" y="101.99" width="2" height="2" fill="#DFE2E1"/>
<rect x="25.9999" y="105.992" width="2" height="2" fill="#DFE2E1"/>
<rect x="45.9989" y="107.99" width="12" height="2" fill="#C1C3C2"/>
<rect x="48.0044" y="103.988" width="14" height="2" fill="#DFE2E1"/>
<rect x="27.9988" y="105.99" width="18" height="4" fill="#DFE2E1"/>
<rect x="25.9999" y="109.992" width="28" height="4" fill="#DFE2E1"/>
<rect x="23.9989" y="113.992" width="11" height="2" fill="#DFE2E1"/>
<rect x="54.0001" y="113.992" width="2" height="2" fill="#DFE2E1"/>
<rect x="54.0001" y="115.992" width="4" height="2" fill="#DFE2E1"/>
<rect x="24.0001" y="115.992" width="9" height="2" fill="#DFE2E1"/>
<rect x="58.0017" y="91.9912" width="1.99948" height="1.99948" fill="#694234"/>
<rect x="46.0044" y="93.9912" width="3.99896" height="1.99948" fill="#694234"/>
<rect x="50.0045" y="93.9883" width="6" height="2" fill="#DFE2E1"/>
<rect x="46.0011" y="95.9902" width="14" height="2" fill="#DFE2E1"/>
<rect x="56.0022" y="93.9912" width="3.99896" height="1.99948" fill="#694234"/>
<rect x="56.0023" y="103.988" width="3.99896" height="1.99948" fill="#694234"/>
<rect x="54.0001" y="117.992" width="2" height="2" fill="#694234"/>
<rect x="21.9999" y="113.992" width="2" height="2" fill="#694234"/>
<rect x="23.9999" y="117.992" width="4" height="2" fill="#694234"/>
<rect x="22" y="97.9922" width="2" height="4" fill="#694234"/>
<rect x="50.0037" y="103.988" width="3.99896" height="1.99948" fill="#4E3638"/>
<rect x="52.0033" y="105.987" width="3.99896" height="1.99948" fill="#4E3638"/>
<rect x="58.0001" y="115.992" width="2" height="2" fill="#4E3638"/>
<rect x="55.9999" y="117.992" width="2" height="2" fill="#4E3638"/>
<rect x="23.9999" y="119.992" width="3.99896" height="1.99948" fill="#4E3638"/>
<rect x="52.0032" y="101.989" width="5.99844" height="1.99948" fill="#694234"/>
<rect x="56.0022" y="105.987" width="1.99948" height="1.99948" fill="#694234"/>
<rect x="58.0017" y="99.9893" width="1.99948" height="3.99896" fill="#281711"/>
<rect x="54.0027" y="103.988" width="1.99948" height="1.99948" fill="#AE799E"/>
<rect x="50.0037" y="99.9893" width="1.99948" height="3.99896" fill="#281711"/>
<rect x="48.0039" y="91.9912" width="1.99948" height="1.99948" fill="#694234"/>
<rect x="56.0022" y="91.9912" width="1.99948" height="1.99948" fill="#4E3638"/>
<rect x="46.0044" y="91.9912" width="1.99948" height="1.99948" fill="#4E3638"/>
<rect x="58.0017" y="89.9922" width="1.99948" height="1.99948" fill="#4E3638"/>
<rect x="48.0039" y="89.9922" width="1.99948" height="1.99948" fill="#4E3638"/>
<rect x="44.0001" y="109.992" width="10" height="4" fill="#C1C3C2"/>
<rect x="37.0001" y="111.992" width="14" height="2" fill="#C1C3C2"/>
<rect x="50.0001" y="113.992" width="4" height="2" fill="#C1C3C2"/>
<rect x="52.0001" y="115.992" width="2" height="2" fill="#C1C3C2"/>
<rect x="54.0001" y="111.992" width="2" height="2" fill="#DFE2E1"/>
<rect x="34.9999" y="113.992" width="2" height="2" fill="#C1C3C2"/>
<rect x="24" y="113.992" width="6" height="2" fill="#DFE2E1"/>
<rect x="26" y="111.992" width="4" height="2" fill="#DFE2E1"/>
<rect x="22" y="115.992" width="2" height="2" fill="#4E3638"/>
<rect x="44" y="103.988" width="1.99948" height="3.99896" fill="#C1C3C2"/>
<rect x="60.0001" y="90" width="1" height="8" fill="#171515" fill-opacity="0.5"/>
<rect x="54.9999" y="91.001" width="1" height="3" fill="#171515" fill-opacity="0.5"/>
<rect x="55.9999" y="91.001" width="1" height="1" fill="#171515" fill-opacity="0.5"/>
<rect x="56.9999" y="89.001" width="1" height="3" fill="#171515" fill-opacity="0.5"/>
<rect x="46.9999" y="89.001" width="1" height="3" fill="#171515" fill-opacity="0.5"/>
<rect x="44.9999" y="91" width="2" height="1" fill="#171515" fill-opacity="0.5"/>
<rect x="42.9999" y="97" width="2" height="1" fill="#171515" fill-opacity="0.5"/>
<rect x="29" y="105" width="14" height="1" fill="#171515" fill-opacity="0.5"/>
<rect x="25" y="103" width="3" height="1" fill="#171515" fill-opacity="0.5"/>
<rect x="47.9999" y="89" width="3" height="1" fill="#171515" fill-opacity="0.5"/>
<rect x="50.9999" y="93" width="4" height="1" fill="#171515" fill-opacity="0.5"/>
<rect x="57.9999" y="89" width="3" height="1" fill="#171515" fill-opacity="0.5"/>
<rect x="49.9999" y="90" width="1" height="4" fill="#171515" fill-opacity="0.5"/>
<rect x="44.9999" y="92" width="1" height="6" fill="#171515" fill-opacity="0.5"/>
<rect x="43" y="98" width="1" height="8" fill="#171515" fill-opacity="0.5"/>
<rect x="61.9999" y="97" width="1" height="9" fill="#171515" fill-opacity="0.5"/>
<rect x="59.9998" y="106.001" width="1" height="3" fill="#171515" fill-opacity="0.5"/>
<rect x="56" y="111" width="1" height="5" fill="#171515" fill-opacity="0.5"/>
<rect x="49" y="114.001" width="1" height="2" fill="#171515" fill-opacity="0.5"/>
<rect x="33" y="116" width="1" height="2" fill="#171515" fill-opacity="0.5"/>
<rect x="37" y="115" width="1" height="2" fill="#171515" fill-opacity="0.5"/>
<rect x="25" y="107" width="1" height="7" fill="#171515" fill-opacity="0.5"/>
<rect x="21.0001" y="114" width="1" height="5" fill="#171515" fill-opacity="0.5"/>
<rect x="21.0001" y="102" width="1" height="2" fill="#171515" fill-opacity="0.5"/>
<rect x="21" y="97" width="1" height="5" fill="#171515" fill-opacity="0.5"/>
<rect x="24" y="97" width="1" height="7" fill="#171515" fill-opacity="0.5"/>
<rect x="28" y="103" width="1" height="3" fill="#171515" fill-opacity="0.5"/>
<rect x="22.9999" y="103.999" width="1" height="3" fill="#171515" fill-opacity="0.5"/>
<rect x="22.9999" y="119.001" width="1" height="3" fill="#171515" fill-opacity="0.5"/>
<rect x="28" y="119" width="1" height="3" fill="#171515" fill-opacity="0.5"/>
<rect x="51" y="116" width="1" height="3" fill="#171515" fill-opacity="0.5"/>
<rect x="60" y="116" width="1" height="3" fill="#171515" fill-opacity="0.5"/>
<rect x="58" y="118" width="1" height="3" fill="#171515" fill-opacity="0.5"/>
<rect x="53" y="118" width="1" height="3" fill="#171515" fill-opacity="0.5"/>
<rect x="58" y="109" width="1" height="2" fill="#171515" fill-opacity="0.5"/>
<rect x="60.9999" y="97" width="1" height="1" fill="#171515" fill-opacity="0.5"/>
<rect x="61" y="106" width="2" height="1" fill="#171515" fill-opacity="0.5"/>
<rect x="58" y="108" width="2" height="1" fill="#171515" fill-opacity="0.5"/>
<rect x="59" y="118" width="1" height="1" fill="#171515" fill-opacity="0.5"/>
<rect x="56" y="110" width="2" height="1" fill="#171515" fill-opacity="0.5"/>
<rect x="54" y="110" width="2" height="2" fill="#171515" fill-opacity="0.5"/>
<rect x="37" y="114" width="12" height="1" fill="#171515" fill-opacity="0.5"/>
<rect x="49" y="116" width="2" height="1" fill="#171515" fill-opacity="0.5"/>
<rect x="28" y="118" width="6" height="1" fill="#171515" fill-opacity="0.5"/>
<rect x="34" y="116" width="3" height="1" fill="#171515" fill-opacity="0.5"/>
<rect x="21.0001" y="113" width="4" height="1" fill="#171515" fill-opacity="0.5"/>
<rect x="20.9999" y="103.999" width="2" height="1" fill="#171515" fill-opacity="0.5"/>
<rect x="22" y="97" width="2" height="1" fill="#171515" fill-opacity="0.5"/>
<rect x="23.9999" y="105.999" width="2" height="1" fill="#171515" fill-opacity="0.5"/>
<rect x="26" y="108" width="2" height="2" fill="#171515" fill-opacity="0.5"/>
<rect x="21.9999" y="117.999" width="2" height="1" fill="#171515" fill-opacity="0.5"/>
<rect x="57" y="115" width="4" height="1" fill="#171515" fill-opacity="0.5"/>
<rect x="54" y="120" width="4" height="1" fill="#171515" fill-opacity="0.5"/>
<rect x="52" y="118" width="1" height="1" fill="#171515" fill-opacity="0.5"/>
<rect x="44.0046" y="155.99" width="18" height="8" fill="#DFE2E1"/>
<rect x="46" y="163.992" width="14" height="2" fill="#DFE2E1"/>
<rect x="24.0012" y="161.989" width="4" height="2" fill="#DFE2E1"/>
<rect x="33.0002" y="161.992" width="9" height="2" fill="#DFE2E1"/>
<rect x="22.001" y="159.99" width="2" height="2" fill="#DFE2E1"/>
<rect x="45.999" y="165.99" width="12" height="2" fill="#C1C3C2"/>
<rect x="48.0045" y="161.988" width="14" height="2" fill="#DFE2E1"/>
<rect x="44" y="161.988" width="1.99948" height="3.99896" fill="#C1C3C2"/>
<rect x="26" y="163.992" width="20" height="4" fill="#DFE2E1"/>
<rect x="28" y="167.992" width="24" height="2" fill="#DFE2E1"/>
<rect x="30" y="169.992" width="12" height="2" fill="#DFE2E1"/>
<rect x="30" y="171.992" width="4" height="2" fill="#DFE2E1"/>
<rect x="36" y="173.992" width="2" height="2" fill="#DFE2E1"/>
<rect x="52.0001" y="171.992" width="2" height="2" fill="#DFE2E1"/>
<rect x="52.0001" y="173.992" width="2" height="2" fill="#DFE2E1"/>
<rect x="58.0018" y="149.991" width="1.99948" height="1.99948" fill="#694234"/>
<rect x="46.0045" y="151.991" width="3.99896" height="1.99948" fill="#694234"/>
<rect x="50.0046" y="151.988" width="6" height="2" fill="#DFE2E1"/>
<rect x="46.0012" y="153.99" width="14" height="2" fill="#DFE2E1"/>
<rect x="56.0023" y="151.991" width="3.99896" height="1.99948" fill="#694234"/>
<rect x="56.0024" y="161.988" width="3.99896" height="1.99948" fill="#694234"/>
<rect x="50" y="175.992" width="2" height="2" fill="#694234"/>
<rect x="22.0001" y="155.992" width="2" height="4" fill="#694234"/>
<rect x="50.0038" y="161.988" width="3.99896" height="1.99948" fill="#4E3638"/>
<rect x="52.0034" y="163.987" width="3.99896" height="1.99948" fill="#4E3638"/>
<rect x="48.0002" y="177.992" width="4" height="2" fill="#4E3638"/>
<rect x="34" y="174" width="4" height="2" fill="#4E3638"/>
<rect x="52.0001" y="175.992" width="2" height="2" fill="#4E3638"/>
<rect x="52.0033" y="159.989" width="5.99844" height="1.99948" fill="#694234"/>
<rect x="56.0023" y="163.987" width="1.99948" height="1.99948" fill="#694234"/>
<rect x="58" y="160" width="2" height="2" fill="#281711"/>
<rect x="54.0028" y="161.988" width="1.99948" height="1.99948" fill="#AE799E"/>
<rect x="50" y="160" width="2" height="2" fill="#281711"/>
<rect x="48.004" y="149.991" width="1.99948" height="1.99948" fill="#694234"/>
<rect x="56.0023" y="149.991" width="1.99948" height="1.99948" fill="#4E3638"/>
<rect x="46.0045" y="149.991" width="1.99948" height="1.99948" fill="#4E3638"/>
<rect x="58.0018" y="147.992" width="1.99948" height="1.99948" fill="#4E3638"/>
<rect x="48.004" y="147.992" width="1.99948" height="1.99948" fill="#4E3638"/>
<rect x="44.0001" y="167.992" width="8" height="4" fill="#C1C3C2"/>
<rect x="42" y="169.992" width="9" height="2" fill="#C1C3C2"/>
<rect x="46.0001" y="171.992" width="6" height="2" fill="#C1C3C2"/>
<rect x="50.0001" y="173.992" width="2" height="2" fill="#C1C3C2"/>
<rect x="52.0001" y="169.992" width="2" height="2" fill="#DFE2E1"/>
<rect x="34" y="171.992" width="4" height="2" fill="#C1C3C2"/>
<rect x="32" y="172" width="4" height="2" fill="#694234"/>
<rect x="59.9999" y="148" width="1" height="8" fill="#171515" fill-opacity="0.5"/>
<rect x="54.9999" y="149.001" width="1" height="3" fill="#171515" fill-opacity="0.5"/>
<rect x="55.9999" y="149.001" width="1" height="1" fill="#171515" fill-opacity="0.5"/>
<rect x="56.9999" y="147.001" width="1" height="3" fill="#171515" fill-opacity="0.5"/>
<rect x="46.9999" y="147.001" width="1" height="3" fill="#171515" fill-opacity="0.5"/>
<rect x="44.9999" y="149" width="2" height="1" fill="#171515" fill-opacity="0.5"/>
<rect x="42.9999" y="155" width="2" height="1" fill="#171515" fill-opacity="0.5"/>
<rect x="33" y="161" width="9" height="1" fill="#171515" fill-opacity="0.5"/>
<rect x="29" y="163" width="3" height="1" fill="#171515" fill-opacity="0.5"/>
<rect x="25" y="161" width="3" height="1" fill="#171515" fill-opacity="0.5"/>
<rect x="20.9999" y="154.999" width="3" height="1" fill="#171515" fill-opacity="0.5"/>
<rect x="47.9999" y="147" width="3" height="1" fill="#171515" fill-opacity="0.5"/>
<rect x="50.9999" y="151" width="4" height="1" fill="#171515" fill-opacity="0.5"/>
<rect x="57.9999" y="147" width="3" height="1" fill="#171515" fill-opacity="0.5"/>
<rect x="49.9999" y="148" width="1" height="4" fill="#171515" fill-opacity="0.5"/>
<rect x="44.9999" y="150" width="1" height="6" fill="#171515" fill-opacity="0.5"/>
<rect x="43" y="156" width="1" height="8" fill="#171515" fill-opacity="0.5"/>
<rect x="62.0001" y="155" width="1" height="10" fill="#171515" fill-opacity="0.5"/>
<rect x="59.9998" y="164.001" width="1" height="3" fill="#171515" fill-opacity="0.5"/>
<rect x="54.0001" y="169" width="1" height="9" fill="#171515" fill-opacity="0.5"/>
<rect x="49.0001" y="174" width="1" height="4" fill="#171515" fill-opacity="0.5"/>
<rect x="48.0001" y="177" width="1" height="1" fill="#171515" fill-opacity="0.5"/>
<rect x="38.0001" y="173" width="1" height="4" fill="#171515" fill-opacity="0.5"/>
<rect x="45.0001" y="173" width="1" height="1" fill="#171515" fill-opacity="0.5"/>
<rect x="24.9999" y="164.999" width="1" height="4" fill="#171515" fill-opacity="0.5"/>
<rect x="33.0001" y="174" width="1" height="2" fill="#171515" fill-opacity="0.5"/>
<rect x="20.9999" y="155.999" width="1" height="6" fill="#171515" fill-opacity="0.5"/>
<rect x="23.9999" y="154.999" width="1" height="7" fill="#171515" fill-opacity="0.5"/>
<rect x="28" y="161" width="1" height="3" fill="#171515" fill-opacity="0.5"/>
<rect x="32" y="161" width="1" height="3" fill="#171515" fill-opacity="0.5"/>
<rect x="42" y="161" width="1" height="3" fill="#171515" fill-opacity="0.5"/>
<rect x="26.9999" y="168.999" width="1" height="1" fill="#171515" fill-opacity="0.5"/>
<rect x="23.0001" y="161.999" width="1" height="2" fill="#171515" fill-opacity="0.5"/>
<rect x="29.0001" y="170" width="1" height="4" fill="#171515" fill-opacity="0.5"/>
<rect x="58.0001" y="166" width="1" height="3" fill="#171515" fill-opacity="0.5"/>
<rect x="60.9999" y="155" width="1" height="1" fill="#171515" fill-opacity="0.5"/>
<rect x="60.9999" y="164" width="1" height="1" fill="#171515" fill-opacity="0.5"/>
<rect x="59.0001" y="166" width="1" height="1" fill="#171515" fill-opacity="0.5"/>
<rect x="54.0001" y="168" width="4" height="1" fill="#171515" fill-opacity="0.5"/>
<rect x="52.0001" y="168" width="2" height="2" fill="#171515" fill-opacity="0.5"/>
<rect x="52.0001" y="178" width="3" height="1" fill="#171515" fill-opacity="0.5"/>
<rect x="52.0001" y="179" width="1" height="1" fill="#171515" fill-opacity="0.5"/>
<rect x="47.0001" y="177" width="1" height="3" fill="#171515" fill-opacity="0.5"/>
<rect x="45.0001" y="174" width="4" height="1" fill="#171515" fill-opacity="0.5"/>
<rect x="38.0001" y="172" width="8" height="1" fill="#171515" fill-opacity="0.5"/>
<rect x="33.0001" y="176" width="5" height="1" fill="#171515" fill-opacity="0.5"/>
<rect x="21.0001" y="161.999" width="2" height="1" fill="#171515" fill-opacity="0.5"/>
<rect x="26.9999" y="169.999" width="2" height="1" fill="#171515" fill-opacity="0.5"/>
<rect x="24.0001" y="164" width="2" height="1" fill="#171515" fill-opacity="0.5"/>
<rect x="25.9999" y="167.999" width="2" height="1" fill="#171515" fill-opacity="0.5"/>
<rect x="29.0001" y="174" width="4" height="1" fill="#171515" fill-opacity="0.5"/>
<rect x="44.0046" y="271.99" width="18" height="8" fill="#DFE2E1"/>
<rect x="46" y="279.992" width="14" height="2" fill="#DFE2E1"/>
<rect x="24.0012" y="277.989" width="4" height="2" fill="#DFE2E1"/>
<rect x="33.0002" y="277.992" width="9" height="2" fill="#DFE2E1"/>
<rect x="24.0007" y="275.99" width="2" height="2" fill="#DFE2E1"/>
<rect x="45.999" y="281.99" width="12" height="2" fill="#C1C3C2"/>
<rect x="48.0045" y="277.988" width="14" height="2" fill="#DFE2E1"/>
<rect x="44" y="277.988" width="1.99948" height="3.99896" fill="#C1C3C2"/>
<rect x="26" y="279.992" width="20" height="4" fill="#DFE2E1"/>
<rect x="28" y="283.992" width="24" height="2" fill="#DFE2E1"/>
<rect x="30" y="285.992" width="12" height="2" fill="#DFE2E1"/>
<rect x="30" y="287.992" width="4" height="2" fill="#DFE2E1"/>
<rect x="36" y="289.992" width="2" height="2" fill="#DFE2E1"/>
<rect x="52.0001" y="287.992" width="2" height="2" fill="#DFE2E1"/>
<rect x="52.0001" y="289.992" width="2" height="2" fill="#DFE2E1"/>
<rect x="58.0018" y="265.991" width="1.99948" height="1.99948" fill="#694234"/>
<rect x="46.0045" y="267.991" width="3.99896" height="1.99948" fill="#694234"/>
<rect x="50.0046" y="267.988" width="6" height="2" fill="#DFE2E1"/>
<rect x="46.0012" y="269.99" width="14" height="2" fill="#DFE2E1"/>
<rect x="56.0023" y="267.991" width="3.99896" height="1.99948" fill="#694234"/>
<rect x="56.0024" y="277.988" width="3.99896" height="1.99948" fill="#694234"/>
<rect x="50" y="291.992" width="2" height="2" fill="#694234"/>
<rect x="21.9999" y="271.992" width="2" height="4" fill="#694234"/>
<rect x="50.0038" y="277.988" width="3.99896" height="1.99948" fill="#4E3638"/>
<rect x="52.0034" y="279.987" width="3.99896" height="1.99948" fill="#4E3638"/>
<rect x="48.0002" y="293.992" width="4" height="2" fill="#4E3638"/>
<rect x="34" y="291.992" width="4" height="2" fill="#4E3638"/>
<rect x="52.0001" y="291.992" width="2" height="2" fill="#4E3638"/>
<rect x="52.0033" y="275.989" width="5.99844" height="1.99948" fill="#694234"/>
<rect x="56.0023" y="279.987" width="1.99948" height="1.99948" fill="#694234"/>
<rect x="58.0018" y="273.989" width="1.99948" height="3.99896" fill="#281711"/>
<rect x="54.0028" y="277.988" width="1.99948" height="1.99948" fill="#AE799E"/>
<rect x="50.0038" y="273.989" width="1.99948" height="3.99896" fill="#281711"/>
<rect x="48.004" y="265.991" width="1.99948" height="1.99948" fill="#694234"/>
<rect x="56.0023" y="265.991" width="1.99948" height="1.99948" fill="#4E3638"/>
<rect x="46.0045" y="265.991" width="1.99948" height="1.99948" fill="#4E3638"/>
<rect x="58.0018" y="263.992" width="1.99948" height="1.99948" fill="#4E3638"/>
<rect x="48.004" y="263.992" width="1.99948" height="1.99948" fill="#4E3638"/>
<rect x="44.0001" y="283.992" width="8" height="4" fill="#C1C3C2"/>
<rect x="42" y="285.992" width="9" height="2" fill="#C1C3C2"/>
<rect x="46.0001" y="287.992" width="6" height="2" fill="#C1C3C2"/>
<rect x="50.0001" y="289.992" width="2" height="2" fill="#C1C3C2"/>
<rect x="52.0001" y="285.992" width="2" height="2" fill="#DFE2E1"/>
<rect x="34" y="287.992" width="4" height="2" fill="#C1C3C2"/>
<rect x="32" y="289.992" width="4" height="2" fill="#694234"/>
<rect x="59.9999" y="264" width="1" height="8" fill="#171515" fill-opacity="0.5"/>
<rect x="54.9999" y="265.001" width="1" height="3" fill="#171515" fill-opacity="0.5"/>
<rect x="55.9999" y="265.001" width="1" height="1" fill="#171515" fill-opacity="0.5"/>
<rect x="56.9999" y="263.001" width="1" height="3" fill="#171515" fill-opacity="0.5"/>
<rect x="46.9999" y="263.001" width="1" height="3" fill="#171515" fill-opacity="0.5"/>
<rect x="44.9999" y="265" width="2" height="1" fill="#171515" fill-opacity="0.5"/>
<rect x="42.9999" y="271" width="2" height="1" fill="#171515" fill-opacity="0.5"/>
<rect x="33" y="277" width="9" height="1" fill="#171515" fill-opacity="0.5"/>
<rect x="29" y="279" width="3" height="1" fill="#171515" fill-opacity="0.5"/>
<rect x="26" y="277" width="2" height="1" fill="#171515" fill-opacity="0.5"/>
<rect x="25" y="275" width="2" height="1" fill="#171515" fill-opacity="0.5"/>
<rect x="20.9999" y="270.999" width="3" height="1" fill="#171515" fill-opacity="0.5"/>
<rect x="47.9999" y="263" width="3" height="1" fill="#171515" fill-opacity="0.5"/>
<rect x="50.9999" y="267" width="4" height="1" fill="#171515" fill-opacity="0.5"/>
<rect x="57.9999" y="263" width="3" height="1" fill="#171515" fill-opacity="0.5"/>
<rect x="49.9999" y="264" width="1" height="4" fill="#171515" fill-opacity="0.5"/>
<rect x="44.9999" y="266" width="1" height="6" fill="#171515" fill-opacity="0.5"/>
<rect x="43" y="272" width="1" height="8" fill="#171515" fill-opacity="0.5"/>
<rect x="62.0001" y="271" width="1" height="10" fill="#171515" fill-opacity="0.5"/>
<rect x="59.9998" y="280.001" width="1" height="3" fill="#171515" fill-opacity="0.5"/>
<rect x="54.0001" y="285" width="1" height="9" fill="#171515" fill-opacity="0.5"/>
<rect x="49.0001" y="290" width="1" height="4" fill="#171515" fill-opacity="0.5"/>
<rect x="48.0001" y="293" width="1" height="1" fill="#171515" fill-opacity="0.5"/>
<rect x="38" y="289" width="1" height="6" fill="#171515" fill-opacity="0.5"/>
<rect x="45.0001" y="289" width="1" height="1" fill="#171515" fill-opacity="0.5"/>
<rect x="24.9999" y="280.999" width="1" height="4" fill="#171515" fill-opacity="0.5"/>
<rect x="31" y="290" width="1" height="2" fill="#171515" fill-opacity="0.5"/>
<rect x="33" y="292" width="1" height="2" fill="#171515" fill-opacity="0.5"/>
<rect x="21" y="272" width="1" height="4" fill="#171515" fill-opacity="0.5"/>
<rect x="24" y="271" width="1" height="5" fill="#171515" fill-opacity="0.5"/>
<rect x="28" y="277" width="1" height="3" fill="#171515" fill-opacity="0.5"/>
<rect x="26" y="276" width="1" height="1" fill="#171515" fill-opacity="0.5"/>
<rect x="32" y="277" width="1" height="3" fill="#171515" fill-opacity="0.5"/>
<rect x="42" y="277" width="1" height="3" fill="#171515" fill-opacity="0.5"/>
<rect x="26.9999" y="284.999" width="1" height="1" fill="#171515" fill-opacity="0.5"/>
<rect x="23" y="276" width="1" height="5" fill="#171515" fill-opacity="0.5"/>
<rect x="29.0001" y="286" width="1" height="4" fill="#171515" fill-opacity="0.5"/>
<rect x="58.0001" y="282" width="1" height="3" fill="#171515" fill-opacity="0.5"/>
<rect x="60.9999" y="271" width="1" height="1" fill="#171515" fill-opacity="0.5"/>
<rect x="60.9999" y="280" width="1" height="1" fill="#171515" fill-opacity="0.5"/>
<rect x="59.0001" y="282" width="1" height="1" fill="#171515" fill-opacity="0.5"/>
<rect x="54.0001" y="284" width="4" height="1" fill="#171515" fill-opacity="0.5"/>
<rect x="52.0001" y="284" width="2" height="2" fill="#171515" fill-opacity="0.5"/>
<rect x="52.0001" y="294" width="3" height="1" fill="#171515" fill-opacity="0.5"/>
<rect x="52.0001" y="295" width="1" height="1" fill="#171515" fill-opacity="0.5"/>
<rect x="47.0001" y="293" width="1" height="3" fill="#171515" fill-opacity="0.5"/>
<rect x="45.0001" y="290" width="4" height="1" fill="#171515" fill-opacity="0.5"/>
<rect x="38.0001" y="288" width="8" height="1" fill="#171515" fill-opacity="0.5"/>
<rect x="33" y="294" width="5" height="1" fill="#171515" fill-opacity="0.5"/>
<rect x="21" y="276" width="2" height="1" fill="#171515" fill-opacity="0.5"/>
<rect x="26.9999" y="285.999" width="2" height="1" fill="#171515" fill-opacity="0.5"/>
<rect x="24.0001" y="280" width="2" height="1" fill="#171515" fill-opacity="0.5"/>
<rect x="25.9999" y="283.999" width="2" height="1" fill="#171515" fill-opacity="0.5"/>
<rect x="29" y="290" width="2" height="1" fill="#171515" fill-opacity="0.5"/>
<rect x="31" y="292" width="2" height="1" fill="#171515" fill-opacity="0.5"/>
<rect x="24.0012" y="219.989" width="4" height="2" fill="#DFE2E1"/>
<rect x="33" y="219.992" width="7" height="2" fill="#DFE2E1"/>
<rect x="22.0011" y="217.99" width="2" height="2" fill="#DFE2E1"/>
<rect x="26" y="221.992" width="20" height="4" fill="#DFE2E1"/>
<rect x="28" y="225.992" width="24" height="2" fill="#DFE2E1"/>
<rect x="30" y="227.992" width="12" height="2" fill="#DFE2E1"/>
<rect x="32" y="229.992" width="8" height="2" fill="#DFE2E1"/>
<rect x="32.0001" y="232" width="4" height="2" fill="#DFE2E1"/>
<rect x="44.0002" y="233.992" width="4" height="2" fill="#694234"/>
<rect x="30" y="229.992" width="2" height="2" fill="#694234"/>
<rect x="34" y="233.992" width="2" height="2" fill="#694234"/>
<rect x="22.0002" y="213.992" width="2" height="4" fill="#694234"/>
<rect x="44.0002" y="235.992" width="4" height="2" fill="#4E3638"/>
<rect x="42" y="233.992" width="2" height="2" fill="#4E3638"/>
<rect x="42.0027" y="215.992" width="18" height="8" fill="#DFE2E1"/>
<rect x="46.0024" y="223.99" width="12" height="2" fill="#DFE2E1"/>
<rect x="43.9971" y="225.992" width="12" height="2" fill="#C1C3C2"/>
<rect x="46.0027" y="221.99" width="14" height="2" fill="#DFE2E1"/>
<rect x="44.0027" y="221.99" width="1.99948" height="3.99896" fill="#C1C3C2"/>
<rect x="56" y="209.993" width="1.99948" height="1.99948" fill="#694234"/>
<rect x="44.0027" y="211.993" width="3.99896" height="1.99948" fill="#694234"/>
<rect x="48.0027" y="211.99" width="6" height="2" fill="#DFE2E1"/>
<rect x="43.9993" y="213.992" width="14" height="2" fill="#DFE2E1"/>
<rect x="54.0005" y="211.993" width="3.99896" height="1.99948" fill="#694234"/>
<rect x="54.0005" y="221.99" width="3.99896" height="1.99948" fill="#694234"/>
<rect x="48.002" y="221.99" width="3.99896" height="1.99948" fill="#4E3638"/>
<rect x="50.0015" y="223.989" width="3.99896" height="1.99948" fill="#4E3638"/>
<rect x="50.0015" y="219.991" width="5.99844" height="1.99948" fill="#694234"/>
<rect x="54.0005" y="223.989" width="1.99948" height="1.99948" fill="#694234"/>
<rect x="56" y="217.991" width="1.99948" height="3.99896" fill="#281711"/>
<rect x="52.0007" y="221.99" width="1.99948" height="1.99948" fill="#AE799E"/>
<rect x="48.002" y="217.991" width="1.99948" height="3.99896" fill="#281711"/>
<rect x="46.0022" y="209.993" width="1.99948" height="1.99948" fill="#694234"/>
<rect x="54.0005" y="209.993" width="1.99948" height="1.99948" fill="#4E3638"/>
<rect x="44.0027" y="209.993" width="1.99948" height="1.99948" fill="#4E3638"/>
<rect x="56" y="207.994" width="1.99948" height="1.99948" fill="#4E3638"/>
<rect x="46.0022" y="207.994" width="1.99948" height="1.99948" fill="#4E3638"/>
<rect x="44.0001" y="225.992" width="8" height="2" fill="#C1C3C2"/>
<rect x="42" y="227.992" width="8" height="4" fill="#C1C3C2"/>
<rect x="42" y="231.992" width="6" height="2" fill="#C1C3C2"/>
<rect x="34.0001" y="232" width="2" height="2" fill="#C1C3C2"/>
<rect x="38" y="227.992" width="2" height="4" fill="#C1C3C2"/>
<rect x="40" y="227.992" width="2" height="2" fill="#C1C3C2"/>
<rect x="30" y="231.992" width="2" height="2" fill="#4E3638"/>
<rect x="32" y="233.992" width="2" height="2" fill="#4E3638"/>
<rect x="58.0023" y="208.002" width="1" height="8" fill="#171515" fill-opacity="0.5"/>
<rect x="53.0023" y="209.003" width="1" height="3" fill="#171515" fill-opacity="0.5"/>
<rect x="54.0023" y="209.003" width="1" height="1" fill="#171515" fill-opacity="0.5"/>
<rect x="55.0023" y="207.003" width="1" height="3" fill="#171515" fill-opacity="0.5"/>
<rect x="45.0023" y="207.003" width="1" height="3" fill="#171515" fill-opacity="0.5"/>
<rect x="43.0023" y="209.002" width="2" height="1" fill="#171515" fill-opacity="0.5"/>
<rect x="41.0023" y="215.002" width="2" height="1" fill="#171515" fill-opacity="0.5"/>
<rect x="32" y="218.999" width="9" height="1" fill="#171515" fill-opacity="0.5"/>
<rect x="29" y="220.999" width="3" height="1" fill="#171515" fill-opacity="0.5"/>
<rect x="25" y="219" width="3" height="1" fill="#171515" fill-opacity="0.5"/>
<rect x="21" y="212.999" width="3" height="1" fill="#171515" fill-opacity="0.5"/>
<rect x="46.0023" y="207.002" width="3" height="1" fill="#171515" fill-opacity="0.5"/>
<rect x="49.0023" y="211.002" width="4" height="1" fill="#171515" fill-opacity="0.5"/>
<rect x="56.0023" y="207.002" width="3" height="1" fill="#171515" fill-opacity="0.5"/>
<rect x="48.0023" y="208.002" width="1" height="4" fill="#171515" fill-opacity="0.5"/>
<rect x="43.0023" y="210.002" width="1" height="6" fill="#171515" fill-opacity="0.5"/>
<rect x="41" y="215.999" width="1" height="6" fill="#171515" fill-opacity="0.5"/>
<rect x="60.0026" y="215.002" width="1" height="10" fill="#171515" fill-opacity="0.5"/>
<rect x="58.0022" y="224.003" width="1" height="3" fill="#171515" fill-opacity="0.5"/>
<rect x="50.0001" y="229" width="1" height="4" fill="#171515" fill-opacity="0.5"/>
<rect x="47.0026" y="234.002" width="1" height="4" fill="#171515" fill-opacity="0.5"/>
<rect x="46.0026" y="237.002" width="1" height="1" fill="#171515" fill-opacity="0.5"/>
<rect x="36.0026" y="233.002" width="1" height="4" fill="#171515" fill-opacity="0.5"/>
<rect x="40.0001" y="230" width="2" height="3" fill="#171515" fill-opacity="0.5"/>
<rect x="25.0001" y="223" width="1" height="4" fill="#171515" fill-opacity="0.5"/>
<rect x="31.0026" y="234.002" width="1" height="2" fill="#171515" fill-opacity="0.5"/>
<rect x="21" y="213.999" width="1" height="6" fill="#171515" fill-opacity="0.5"/>
<rect x="24" y="212.999" width="1" height="7" fill="#171515" fill-opacity="0.5"/>
<rect x="28" y="218.999" width="1" height="3" fill="#171515" fill-opacity="0.5"/>
<rect x="32" y="219.999" width="1" height="2" fill="#171515" fill-opacity="0.5"/>
<rect x="40" y="219.999" width="1" height="2" fill="#171515" fill-opacity="0.5"/>
<rect x="27.0001" y="227" width="1" height="1" fill="#171515" fill-opacity="0.5"/>
<rect x="23.0001" y="220" width="1" height="2" fill="#171515" fill-opacity="0.5"/>
<rect x="29.0001" y="228" width="1" height="6" fill="#171515" fill-opacity="0.5"/>
<rect x="56.0026" y="226.002" width="1" height="3" fill="#171515" fill-opacity="0.5"/>
<rect x="59.0023" y="215.002" width="1" height="1" fill="#171515" fill-opacity="0.5"/>
<rect x="59.0023" y="224.002" width="1" height="1" fill="#171515" fill-opacity="0.5"/>
<rect x="57.0026" y="226.002" width="1" height="1" fill="#171515" fill-opacity="0.5"/>
<rect x="49.0001" y="232" width="1" height="1" fill="#171515" fill-opacity="0.5"/>
<rect x="50.0001" y="228" width="6" height="1" fill="#171515" fill-opacity="0.5"/>
<rect x="41.0001" y="233" width="1" height="4" fill="#171515" fill-opacity="0.5"/>
<rect x="43.0026" y="234.002" width="4" height="1" fill="#171515" fill-opacity="0.5"/>
<rect x="36.0001" y="232" width="4" height="1" fill="#171515" fill-opacity="0.5"/>
<rect x="31.0026" y="236.002" width="5" height="1" fill="#171515" fill-opacity="0.5"/>
<rect x="21.0001" y="220" width="2" height="1" fill="#171515" fill-opacity="0.5"/>
<rect x="27.0001" y="228" width="2" height="1" fill="#171515" fill-opacity="0.5"/>
<rect x="24.0001" y="222.001" width="2" height="1" fill="#171515" fill-opacity="0.5"/>
<rect x="26.0001" y="226" width="2" height="1" fill="#171515" fill-opacity="0.5"/>
<rect x="29.0001" y="234" width="2" height="1" fill="#171515" fill-opacity="0.5"/>
<rect x="48" y="232" width="1" height="6" fill="#171515" fill-opacity="0.5"/>
<rect x="42" y="236" width="2" height="1" fill="#171515" fill-opacity="0.5"/>
<rect x="43" y="237" width="1" height="1" fill="#171515" fill-opacity="0.5"/>
</svg>
