<svg width="44" height="34" viewBox="0 0 44 34" fill="none" xmlns="http://www.w3.org/2000/svg">
<rect x="26.0045" y="7.99805" width="18" height="8" fill="#DFE2E1"/>
<rect x="30.0043" y="17.9961" width="12" height="2" fill="#DFE2E1"/>
<rect x="4" y="16" width="6" height="2" fill="#DFE2E1"/>
<rect x="2" y="14" width="4" height="2" fill="#DFE2E1"/>
<rect x="7.99988" y="18" width="2" height="2" fill="#DFE2E1"/>
<rect x="2" y="26" width="17" height="2" fill="#DFE2E1"/>
<rect x="4" y="24" width="4" height="2" fill="#DFE2E1"/>
<rect x="35.9999" y="20" width="2" height="2" fill="#C1C3C2"/>
<rect x="27.9999" y="16" width="16" height="2" fill="#DFE2E1"/>
<rect x="9.99878" y="17.998" width="18" height="4" fill="#DFE2E1"/>
<rect x="7.99988" y="22" width="28" height="4" fill="#DFE2E1"/>
<rect x="5.99878" y="28" width="11" height="2" fill="#DFE2E1"/>
<rect x="36" y="24" width="4" height="2" fill="#DFE2E1"/>
<rect x="36" y="26" width="4" height="2" fill="#DFE2E1"/>
<rect x="6" y="30" width="7" height="2" fill="#DFE2E1"/>
<rect x="40.0018" y="1.99902" width="1.99948" height="1.99948" fill="#694234"/>
<rect x="28.0045" y="3.99902" width="3.99896" height="1.99948" fill="#694234"/>
<rect x="32.0045" y="3.99609" width="6" height="2" fill="#DFE2E1"/>
<rect x="28.0011" y="5.99805" width="14" height="2" fill="#DFE2E1"/>
<rect x="38.0023" y="3.99902" width="3.99896" height="1.99948" fill="#694234"/>
<rect x="38.0023" y="13.9961" width="3.99896" height="1.99948" fill="#694234"/>
<rect x="38" y="28" width="2" height="2" fill="#694234"/>
<rect x="6" y="30" width="3.99896" height="1.99948" fill="#694234"/>
<rect x="4" y="28" width="2" height="2" fill="#694234"/>
<rect y="10" width="2" height="4" fill="#694234"/>
<rect x="32.0038" y="13.9961" width="3.99896" height="1.99948" fill="#4E3638"/>
<rect x="34.0033" y="15.9951" width="3.99896" height="1.99948" fill="#4E3638"/>
<rect x="39.9998" y="28" width="2" height="2" fill="#4E3638"/>
<rect x="42" y="26" width="2" height="4" fill="#4E3638"/>
<rect x="6" y="32" width="3.99896" height="1.99948" fill="#4E3638"/>
<rect x="2" y="28" width="2" height="2" fill="#4E3638"/>
<rect x="34.0033" y="11.9971" width="5.99844" height="1.99948" fill="#694234"/>
<rect x="38.0023" y="15.9951" width="1.99948" height="1.99948" fill="#694234"/>
<rect x="40.0018" y="9.99707" width="1.99948" height="3.99896" fill="#281711"/>
<rect x="36.0028" y="13.9961" width="1.99948" height="1.99948" fill="#AE799E"/>
<rect x="32.0038" y="9.99707" width="1.99948" height="3.99896" fill="#281711"/>
<rect x="30.004" y="1.99902" width="1.99948" height="1.99948" fill="#694234"/>
<rect x="38.0023" y="1.99902" width="1.99948" height="1.99948" fill="#4E3638"/>
<rect x="28.0045" y="1.99902" width="1.99948" height="1.99948" fill="#4E3638"/>
<rect x="40.0018" width="1.99948" height="1.99948" fill="#4E3638"/>
<rect x="30.004" width="1.99948" height="1.99948" fill="#4E3638"/>
<rect x="27.9999" y="20" width="8" height="4" fill="#C1C3C2"/>
<rect x="19" y="26" width="9" height="2" fill="#C1C3C2"/>
<rect x="32" y="24" width="4" height="2" fill="#C1C3C2"/>
<rect x="23.9999" y="24" width="10" height="2" fill="#C1C3C2"/>
<rect x="34" y="26" width="4" height="2" fill="#C1C3C2"/>
<rect x="36" y="22" width="2" height="2" fill="#DFE2E1"/>
<rect x="40" y="26" width="2" height="2" fill="#DFE2E1"/>
<rect x="15" y="28" width="2" height="2" fill="#C1C3C2"/>
<rect x="25.9999" y="16" width="2" height="4" fill="#C1C3C2"/>
<rect x="27.9999" y="18" width="2" height="2" fill="#C1C3C2"/>
<rect x="34" y="26" width="2" height="2" fill="#4E3638"/>
<rect x="19" y="16" width="5" height="2" fill="#DFE2E1"/>
</svg>
