<svg width="48" height="48" viewBox="0 0 48 48" fill="none" xmlns="http://www.w3.org/2000/svg">
<rect x="28.0045" y="21.998" width="18" height="8" fill="#DFE2E1"/>
<rect x="32.0043" y="31.9961" width="12" height="2" fill="#DFE2E1"/>
<rect x="6" y="30" width="6" height="2" fill="#DFE2E1"/>
<rect x="4" y="28" width="4" height="2" fill="#DFE2E1"/>
<rect x="9.99988" y="32" width="2" height="2" fill="#DFE2E1"/>
<rect x="4" y="40" width="17" height="2" fill="#DFE2E1"/>
<rect x="6" y="38" width="4" height="2" fill="#DFE2E1"/>
<rect x="37.9999" y="34" width="2" height="2" fill="#C1C3C2"/>
<rect x="29.9999" y="30" width="16" height="2" fill="#DFE2E1"/>
<rect x="11.9988" y="31.998" width="18" height="4" fill="#DFE2E1"/>
<rect x="9.99988" y="36" width="28" height="4" fill="#DFE2E1"/>
<rect x="7.99878" y="42" width="11" height="2" fill="#DFE2E1"/>
<rect x="38" y="38" width="4" height="2" fill="#DFE2E1"/>
<rect x="38" y="40" width="4" height="2" fill="#DFE2E1"/>
<rect x="8" y="44" width="7" height="2" fill="#DFE2E1"/>
<rect x="42.0018" y="15.999" width="1.99948" height="1.99948" fill="#694234"/>
<rect x="30.0045" y="17.999" width="3.99896" height="1.99948" fill="#694234"/>
<rect x="34.0045" y="17.9961" width="6" height="2" fill="#DFE2E1"/>
<rect x="30.0011" y="19.998" width="14" height="2" fill="#DFE2E1"/>
<rect x="40.0023" y="17.999" width="3.99896" height="1.99948" fill="#694234"/>
<rect x="40.0023" y="27.9961" width="3.99896" height="1.99948" fill="#694234"/>
<rect x="40" y="42" width="2" height="2" fill="#694234"/>
<rect x="8" y="44" width="3.99896" height="1.99948" fill="#694234"/>
<rect x="6" y="42" width="2" height="2" fill="#694234"/>
<rect x="2" y="24" width="2" height="4" fill="#694234"/>
<rect x="34.0038" y="27.9961" width="3.99896" height="1.99948" fill="#4E3638"/>
<rect x="36.0033" y="29.9951" width="3.99896" height="1.99948" fill="#4E3638"/>
<rect x="41.9998" y="42" width="2" height="2" fill="#4E3638"/>
<rect x="44" y="40" width="2" height="4" fill="#4E3638"/>
<rect x="8" y="46" width="3.99896" height="1.99948" fill="#4E3638"/>
<rect x="4" y="42" width="2" height="2" fill="#4E3638"/>
<rect x="36.0033" y="25.9971" width="5.99844" height="1.99948" fill="#694234"/>
<rect x="40.0023" y="29.9951" width="1.99948" height="1.99948" fill="#694234"/>
<rect x="42.0018" y="23.9971" width="1.99948" height="3.99896" fill="#281711"/>
<rect x="38.0028" y="27.9961" width="1.99948" height="1.99948" fill="#AE799E"/>
<rect x="34.0038" y="23.9971" width="1.99948" height="3.99896" fill="#281711"/>
<rect x="32.004" y="15.999" width="1.99948" height="1.99948" fill="#694234"/>
<rect x="40.0023" y="15.999" width="1.99948" height="1.99948" fill="#4E3638"/>
<rect x="30.0045" y="15.999" width="1.99948" height="1.99948" fill="#4E3638"/>
<rect x="42.0018" y="14" width="1.99948" height="1.99948" fill="#4E3638"/>
<rect x="32.004" y="14" width="1.99948" height="1.99948" fill="#4E3638"/>
<rect x="29.9999" y="34" width="8" height="4" fill="#C1C3C2"/>
<rect x="21" y="40" width="9" height="2" fill="#C1C3C2"/>
<rect x="34" y="38" width="4" height="2" fill="#C1C3C2"/>
<rect x="25.9999" y="38" width="10" height="2" fill="#C1C3C2"/>
<rect x="36" y="40" width="4" height="2" fill="#C1C3C2"/>
<rect x="38" y="36" width="2" height="2" fill="#DFE2E1"/>
<rect x="42" y="40" width="2" height="2" fill="#DFE2E1"/>
<rect x="17" y="42" width="2" height="2" fill="#C1C3C2"/>
<rect x="27.9999" y="30" width="2" height="4" fill="#C1C3C2"/>
<rect x="29.9999" y="32" width="2" height="2" fill="#C1C3C2"/>
<rect x="36" y="40" width="2" height="2" fill="#4E3638"/>
<rect x="21" y="30" width="5" height="2" fill="#DFE2E1"/>
<rect x="44.0001" y="14" width="1" height="8" fill="#171515" fill-opacity="0.5"/>
<rect x="39.0001" y="15.001" width="1" height="3" fill="#171515" fill-opacity="0.5"/>
<rect x="40.0001" y="15.001" width="1" height="1" fill="#171515" fill-opacity="0.5"/>
<rect x="41" y="13.001" width="1" height="3" fill="#171515" fill-opacity="0.5"/>
<rect x="31" y="13.001" width="1" height="3" fill="#171515" fill-opacity="0.5"/>
<rect x="29" y="15" width="2" height="1" fill="#171515" fill-opacity="0.5"/>
<rect x="27" y="21" width="2" height="1" fill="#171515" fill-opacity="0.5"/>
<rect x="21" y="29" width="5" height="1" fill="#171515" fill-opacity="0.5"/>
<rect x="13" y="31" width="7" height="1" fill="#171515" fill-opacity="0.5"/>
<rect x="9" y="29" width="3" height="1" fill="#171515" fill-opacity="0.5"/>
<rect x="5" y="27" width="3" height="1" fill="#171515" fill-opacity="0.5"/>
<rect x="32" y="13" width="3" height="1" fill="#171515" fill-opacity="0.5"/>
<rect x="35" y="17" width="4" height="1" fill="#171515" fill-opacity="0.5"/>
<rect x="42" y="13" width="3" height="1" fill="#171515" fill-opacity="0.5"/>
<rect x="33.9999" y="14" width="1" height="4" fill="#171515" fill-opacity="0.5"/>
<rect x="29" y="16" width="1" height="6" fill="#171515" fill-opacity="0.5"/>
<rect x="27" y="22" width="1" height="10" fill="#171515" fill-opacity="0.5"/>
<rect x="46" y="21" width="1" height="12" fill="#171515" fill-opacity="0.5"/>
<rect x="43.9998" y="32.001" width="1" height="3" fill="#171515" fill-opacity="0.5"/>
<rect x="42.0001" y="38" width="1" height="2" fill="#171515" fill-opacity="0.5"/>
<rect x="35" y="40.001" width="1" height="2" fill="#171515" fill-opacity="0.5"/>
<rect x="30" y="40" width="1" height="2" fill="#171515" fill-opacity="0.5"/>
<rect x="19" y="43.001" width="1" height="2" fill="#171515" fill-opacity="0.5"/>
<rect x="9" y="33" width="1" height="4" fill="#171515" fill-opacity="0.5"/>
<rect x="14.9996" y="45.001" width="1" height="2" fill="#171515" fill-opacity="0.5"/>
<rect x="3" y="40" width="1" height="5" fill="#171515" fill-opacity="0.5"/>
<rect x="3.00012" y="28" width="1" height="2" fill="#171515" fill-opacity="0.5"/>
<rect x="1.00012" y="23" width="1" height="5" fill="#171515" fill-opacity="0.5"/>
<rect x="4" y="23" width="1" height="5" fill="#171515" fill-opacity="0.5"/>
<rect x="8" y="27" width="1" height="3" fill="#171515" fill-opacity="0.5"/>
<rect x="12" y="29" width="1" height="3" fill="#171515" fill-opacity="0.5"/>
<rect x="20" y="29" width="1" height="3" fill="#171515" fill-opacity="0.5"/>
<rect x="26" y="29" width="1" height="3" fill="#171515" fill-opacity="0.5"/>
<rect x="5" y="38" width="1" height="2" fill="#171515" fill-opacity="0.5"/>
<rect x="5" y="30" width="1" height="2" fill="#171515" fill-opacity="0.5"/>
<rect x="6.99988" y="45.001" width="1" height="3" fill="#171515" fill-opacity="0.5"/>
<rect x="12" y="47.001" width="1" height="1" fill="#171515" fill-opacity="0.5"/>
<rect x="39" y="42" width="1" height="2" fill="#171515" fill-opacity="0.5"/>
<rect x="46" y="40" width="1" height="5" fill="#171515" fill-opacity="0.5"/>
<rect x="39.9999" y="34" width="1" height="4" fill="#171515" fill-opacity="0.5"/>
<rect x="45" y="21" width="1" height="1" fill="#171515" fill-opacity="0.5"/>
<rect x="44.9999" y="32" width="1" height="1" fill="#171515" fill-opacity="0.5"/>
<rect x="41" y="34.001" width="3" height="1" fill="#171515" fill-opacity="0.5"/>
<rect x="41.0001" y="37" width="2" height="1" fill="#171515" fill-opacity="0.5"/>
<rect x="31.0001" y="40" width="4" height="1" fill="#171515" fill-opacity="0.5"/>
<rect x="35" y="42.001" width="4" height="1" fill="#171515" fill-opacity="0.5"/>
<rect x="18.9999" y="42" width="12" height="1" fill="#171515" fill-opacity="0.5"/>
<rect x="15" y="44" width="4" height="1" fill="#171515" fill-opacity="0.5"/>
<rect x="3" y="39" width="2" height="1" fill="#171515" fill-opacity="0.5"/>
<rect x="3" y="30" width="2" height="1" fill="#171515" fill-opacity="0.5"/>
<rect x="1.00012" y="28" width="2" height="1" fill="#171515" fill-opacity="0.5"/>
<rect x="2.00012" y="23" width="2" height="1" fill="#171515" fill-opacity="0.5"/>
<rect x="5" y="37" width="5" height="1" fill="#171515" fill-opacity="0.5"/>
<rect x="5" y="32" width="5" height="1" fill="#171515" fill-opacity="0.5"/>
<rect x="10" y="34" width="2" height="2" fill="#171515" fill-opacity="0.5"/>
<rect x="12" y="46.001" width="3" height="1" fill="#171515" fill-opacity="0.5"/>
<rect x="3.99988" y="44.001" width="4" height="1" fill="#171515" fill-opacity="0.5"/>
<rect x="43" y="39" width="4" height="1" fill="#171515" fill-opacity="0.5"/>
<rect x="39" y="44" width="7" height="1" fill="#171515" fill-opacity="0.5"/>
</svg>
